<svg width="21" height="21" viewBox="0 0 21 21" fill="none" xmlns="http://www.w3.org/2000/svg">
<path d="M11.7285 1.91504H3.39518C2.47852 1.91504 1.72852 2.66504 1.72852 3.58171V11.915H3.39518V3.58171H11.7285V1.91504ZM15.0618 5.24837H6.72852C5.81185 5.24837 5.06185 5.99837 5.06185 6.91504V15.2484H6.72852V6.91504H15.0618V5.24837ZM16.7285 8.58171H10.0618C9.14518 8.58171 8.39518 9.33171 8.39518 10.2484V16.915C8.39518 17.8317 9.14518 18.5817 10.0618 18.5817H16.7285C17.6452 18.5817 18.3952 17.8317 18.3952 16.915V10.2484C18.3952 9.33171 17.6452 8.58171 16.7285 8.58171ZM16.7285 16.915H10.0618V10.2484H16.7285V16.915Z" fill="white" fill-opacity="0.8"/>
</svg>
