<svg width="18" height="18" viewBox="0 0 18 18" fill="none" xmlns="http://www.w3.org/2000/svg">
<g id="zoom_out">
<path id="Vector" d="M12.056 10.3983H11.4933L11.2938 10.206C11.9919 9.39394 12.4122 8.33973 12.4122 7.19292C12.4122 4.63576 10.3394 2.56296 7.78219 2.56296C5.22502 2.56296 3.15222 4.63576 3.15222 7.19292C3.15222 9.75009 5.22502 11.8229 7.78219 11.8229C8.92899 11.8229 9.9832 11.4026 10.7952 10.7046L10.9875 10.904V11.4667L14.5491 15.0211L15.6104 13.9598L12.056 10.3983ZM7.78219 10.3983C6.00855 10.3983 4.57683 8.96656 4.57683 7.19292C4.57683 5.41929 6.00855 3.98756 7.78219 3.98756C9.55582 3.98756 10.9875 5.41929 10.9875 7.19292C10.9875 8.96656 9.55582 10.3983 7.78219 10.3983ZM6.00143 6.83677H9.56294V7.54907H6.00143V6.83677Z" fill="#0AB7FE" fill-opacity="0.8"/>
</g>
</svg>
