<svg width="18" height="18" viewBox="0 0 18 18" fill="none" xmlns="http://www.w3.org/2000/svg">
<g id="zoom_in">
<path id="Vector" d="M12.0649 10.395L11.5022 10.3985L11.3016 10.2074C11.9945 9.39103 12.4082 8.33422 12.4011 7.18744C12.3851 4.63032 10.2994 2.57049 7.7423 2.58644C5.18519 2.6024 3.12536 4.68809 3.14131 7.2452C3.15726 9.80232 5.24295 11.8621 7.80007 11.8462C8.94685 11.839 9.99842 11.4122 10.8061 10.7091L10.9996 10.9073L11.0031 11.4701L14.5868 15.0022L15.6414 13.9342L12.0649 10.395ZM7.79118 10.4216C6.01758 10.4327 4.57695 9.00991 4.56589 7.23632C4.55482 5.46272 5.97759 4.02209 7.75119 4.01102C9.52479 3.99996 10.9654 5.42273 10.9765 7.19632C10.9875 8.96992 9.56478 10.4106 7.79118 10.4216ZM8.11622 5.43338L7.40393 5.43782L7.41282 6.8624L5.98824 6.87128L5.99269 7.58357L7.41726 7.57469L7.42615 8.99926L8.13844 8.99482L8.12955 7.57024L9.55413 7.56136L9.54968 6.84907L8.12511 6.85795L8.11622 5.43338Z" fill="#0AB7FE" fill-opacity="0.8"/>
</g>
</svg>
