<svg width="16" height="16" viewBox="0 0 16 16" fill="none" xmlns="http://www.w3.org/2000/svg">
<path d="M7.99935 3.98337C10.526 3.98337 12.7793 5.40337 13.8793 7.65003C13.486 8.46337 12.9327 9.16337 12.2727 9.73003L13.2127 10.67C14.1393 9.85003 14.8727 8.82337 15.3327 7.65003C14.1793 4.72337 11.3327 2.65003 7.99935 2.65003C7.15268 2.65003 6.33935 2.78337 5.57268 3.03003L6.67268 4.13003C7.10602 4.04337 7.54602 3.98337 7.99935 3.98337ZM7.28602 4.74337L8.66602 6.12337C9.04601 6.29003 9.35268 6.5967 9.51935 6.9767L10.8993 8.3567C10.9527 8.13003 10.9927 7.89003 10.9927 7.64337C10.9993 5.99003 9.65268 4.65003 7.99935 4.65003C7.75268 4.65003 7.51935 4.68337 7.28602 4.74337ZM1.33935 2.56337L3.12602 4.35003C2.03935 5.20337 1.17935 6.3367 0.666016 7.65003C1.81935 10.5767 4.66602 12.65 7.99935 12.65C9.01268 12.65 9.98602 12.4567 10.8793 12.1034L13.1593 14.3834L14.0993 13.4434L2.27935 1.6167L1.33935 2.56337ZM6.33935 7.56337L8.07935 9.30337C8.05268 9.31003 8.02602 9.3167 7.99935 9.3167C7.07935 9.3167 6.33268 8.57003 6.33268 7.65003C6.33268 7.6167 6.33935 7.5967 6.33935 7.56337ZM4.07268 5.2967L5.23935 6.46337C5.08602 6.83003 4.99935 7.23003 4.99935 7.65003C4.99935 9.30337 6.34602 10.65 7.99935 10.65C8.41935 10.65 8.81935 10.5634 9.17935 10.41L9.83268 11.0634C9.24602 11.2234 8.63268 11.3167 7.99935 11.3167C5.47268 11.3167 3.21935 9.8967 2.11935 7.65003C2.58602 6.6967 3.26602 5.91003 4.07268 5.2967Z" fill="white" fill-opacity="0.8"/>
</svg>
