<svg width="18" height="18" viewBox="0 0 18 18" fill="none" xmlns="http://www.w3.org/2000/svg">
<g id="language">
<path id="Vector" d="M9.37335 15.8487C5.44144 15.8487 2.25745 12.6576 2.25745 8.72567C2.25745 4.79376 5.44144 1.60264 9.37335 1.60264C13.3124 1.60264 16.5035 4.79376 16.5035 8.72567C16.5035 12.6576 13.3124 15.8487 9.37335 15.8487ZM14.3096 11.5749H12.2083C11.9804 12.4653 11.6527 13.32 11.2253 14.1107C12.536 13.6619 13.6258 12.7502 14.3096 11.5749ZM9.38047 14.3956C9.97168 13.5408 10.4347 12.5935 10.741 11.5749H8.01997C8.32626 12.5935 8.78926 13.5408 9.38047 14.3956ZM3.86725 7.30106C3.75328 7.75694 3.68205 8.23418 3.68205 8.72567C3.68205 9.21716 3.75328 9.6944 3.86725 10.1503H6.27483C6.21785 9.68015 6.17511 9.21003 6.17511 8.72567C6.17511 8.2413 6.21785 7.77118 6.27483 7.30106H3.86725ZM4.45134 5.87646H6.55263C6.78057 4.98608 7.10823 4.13132 7.53561 3.34066C6.22497 3.78941 5.13515 4.69404 4.45134 5.87646ZM6.55263 11.5749H4.45134C5.13515 12.7573 6.22497 13.6619 7.53561 14.1107C7.10823 13.32 6.78057 12.4653 6.55263 11.5749ZM9.38047 3.05574C8.78926 3.9105 8.32626 4.85787 8.01997 5.87646H10.741C10.4347 4.85787 9.97168 3.9105 9.38047 3.05574ZM11.0473 7.30106H7.71368C7.64958 7.77118 7.59972 8.2413 7.59972 8.72567C7.59972 9.21003 7.64958 9.68728 7.71368 10.1503H11.0473C11.1114 9.68728 11.1612 9.21003 11.1612 8.72567C11.1612 8.2413 11.1114 7.77118 11.0473 7.30106ZM11.2253 3.34066C11.6527 4.13132 11.9804 4.98608 12.2083 5.87646H14.3096C13.6258 4.70116 12.536 3.78941 11.2253 3.34066ZM12.4861 7.30106C12.5431 7.77118 12.5858 8.2413 12.5858 8.72567C12.5858 9.21003 12.5431 9.68015 12.4861 10.1503H14.8937C15.0077 9.6944 15.0789 9.21716 15.0789 8.72567C15.0789 8.23418 15.0077 7.75694 14.8937 7.30106H12.4861Z" fill="white" fill-opacity="0.8"/>
</g>
</svg>
