<svg width="20" height="20" viewBox="0 0 20 20" fill="none" xmlns="http://www.w3.org/2000/svg">
<path d="M11.666 1.6665H3.33268C2.41602 1.6665 1.66602 2.4165 1.66602 3.33317V11.6665H3.33268V3.33317H11.666V1.6665ZM14.9993 4.99984H6.66602C5.74935 4.99984 4.99935 5.74984 4.99935 6.6665V14.9998H6.66602V6.6665H14.9993V4.99984ZM16.666 8.33317H9.99935C9.08268 8.33317 8.33268 9.08317 8.33268 9.99984V16.6665C8.33268 17.5832 9.08268 18.3332 9.99935 18.3332H16.666C17.5827 18.3332 18.3327 17.5832 18.3327 16.6665V9.99984C18.3327 9.08317 17.5827 8.33317 16.666 8.33317ZM16.666 16.6665H9.99935V9.99984H16.666V16.6665Z" fill="#0AB7FE"/>
</svg>
