<svg xmlns="http://www.w3.org/2000/svg" width="21" height="21" viewBox="0 0 21 21" fill="none">
  <g clip-path="url(#clip0_3415_100189)">
    <path d="M15.8965 6.79134L12.5632 10.1247H15.0631C15.0631 12.883 12.8215 15.1247 10.0632 15.1247C9.22148 15.1247 8.42148 14.9163 7.72982 14.5413L6.51315 15.758C7.53815 16.408 8.75482 16.7913 10.0632 16.7913C13.7465 16.7913 16.7298 13.808 16.7298 10.1247H19.2298L15.8965 6.79134ZM5.06315 10.1247C5.06315 7.36634 7.30482 5.12467 10.0632 5.12467C10.9048 5.12467 11.7048 5.33301 12.3965 5.70801L13.6131 4.49134C12.5882 3.84134 11.3715 3.45801 10.0632 3.45801C6.37982 3.45801 3.39648 6.44134 3.39648 10.1247H0.896484L4.22982 13.458L7.56315 10.1247H5.06315Z" fill="white" fill-opacity="0.8"/>
  </g>
  <defs>
    <clipPath id="clip0_3415_100189">
      <rect width="20" height="20" fill="white" transform="translate(0.0625 0.124512)"/>
    </clipPath>
  </defs>
</svg>